<svg xmlns:ev="http://www.w3.org/2001/xml-events" viewBox="0 0 1132 804" xmlns:xlink="http://www.w3.org/1999/xlink" height="804" width="1132" xmlns="http://www.w3.org/2000/svg"><defs/><g transform="translate(5.5,5.5)" id="page1"><rect y="0" height="794" width="1123" x="0" fill="none"/><g transform="translate(388.860000,319.275750)" id="shape1"><path fill-rule="nonzero" stroke-width="3.333329916000366" fill="#abf35d" d="M100.0,53.0L100.0,7.0C100.0,3.1,96.9,.0,93.0,.0L7.0,.0C3.1,.0,.0,3.1,.0,7.0L.0,53.0C.0,56.9,3.1,60.0,7.0,60.0L93.0,60.0C96.9,60.0,100.0,56.9,100.0,53.0z" stroke="#92d050"/><text xml:space="preserve" style="fill:#29699b;font-family:微软雅黑,PingFang SC,Mircrosoft YaHei,Arial;font-size:10.00pt;font-weight:bold"><tspan y="34.1" x="32.4" style="font-family:微软雅黑,PingFang SC,Mircrosoft YaHei,Arial">节点1</tspan></text></g><g transform="translate(712.260000,319.275750)" id="shape2"><path fill-rule="nonzero" stroke-width="3.333329916000366" fill="#abf35d" d="M100.0,53.0L100.0,7.0C100.0,3.1,96.9,.0,93.0,.0L7.0,.0C3.1,.0,.0,3.1,.0,7.0L.0,53.0C.0,56.9,3.1,60.0,7.0,60.0L93.0,60.0C96.9,60.0,100.0,56.9,100.0,53.0z" stroke="#92d050"/><text xml:space="preserve" style="fill:#29699b;font-family:微软雅黑,PingFang SC,Mircrosoft YaHei,Arial;font-size:10.00pt;font-weight:bold"><tspan y="34.1" x="32.4" style="font-family:微软雅黑,PingFang SC,Mircrosoft YaHei,Arial">节点2</tspan></text></g><g transform="translate(388.860000,575.275750)" id="shape3"><path fill-rule="nonzero" stroke-width="3.333329916000366" fill="#abf35d" d="M100.0,53.0L100.0,7.0C100.0,3.1,96.9,.0,93.0,.0L7.0,.0C3.1,.0,.0,3.1,.0,7.0L.0,53.0C.0,56.9,3.1,60.0,7.0,60.0L93.0,60.0C96.9,60.0,100.0,56.9,100.0,53.0z" stroke="#92d050"/><text xml:space="preserve" style="fill:#29699b;font-family:微软雅黑,PingFang SC,Mircrosoft YaHei,Arial;font-size:10.00pt;font-weight:bold"><tspan y="34.1" x="32.4" style="font-family:微软雅黑,PingFang SC,Mircrosoft YaHei,Arial">节点4</tspan></text></g><g transform="translate(712.260000,575.275750)" id="shape4"><path fill-rule="nonzero" stroke-width="3.333329916000366" fill="#abf35d" d="M100.0,53.0L100.0,7.0C100.0,3.1,96.9,.0,93.0,.0L7.0,.0C3.1,.0,.0,3.1,.0,7.0L.0,53.0C.0,56.9,3.1,60.0,7.0,60.0L93.0,60.0C96.9,60.0,100.0,56.9,100.0,53.0z" stroke="#92d050"/><text xml:space="preserve" style="fill:#29699b;font-family:微软雅黑,PingFang SC,Mircrosoft YaHei,Arial;font-size:10.00pt;font-weight:bold"><tspan y="34.1" x="32.4" style="font-family:微软雅黑,PingFang SC,Mircrosoft YaHei,Arial">节点3</tspan></text></g><g transform="translate(488.860000,349.275750)" id="shape5"><path stroke-width="3.333329916000366" fill="none" stroke="#92d050" d="M14.6,.0L208.8,.0"/><path stroke-width="1" stroke-linecap="round" fill="#92d050" stroke="#92d050" d="M14.6,7.3L.0,.0L14.6,-7.3L14.6,7.3"/><path stroke-width="1" stroke-linecap="round" fill="#92d050" stroke="#92d050" d="M208.8,-7.3L223.4,.0L208.8,7.3L208.8,-7.3"/></g><g transform="translate(762.260000,379.275750)" id="shape6"><path stroke-width="3.333329916000366" fill="none" stroke="#92d050" d="M.0,14.6L.0,181.4"/><path stroke-width="1" stroke-linecap="round" fill="#92d050" stroke="#92d050" d="M-7.3,14.6L.0,.0L7.3,14.6L-7.3,14.6"/><path stroke-width="1" stroke-linecap="round" fill="#92d050" stroke="#92d050" d="M7.3,181.4L.0,196.0L-7.3,181.4L7.3,181.4"/></g><g transform="translate(712.260000,605.275750)" id="shape7"><path stroke-width="3.333329916000366" fill="none" stroke="#92d050" d="M-14.6,.0L-208.8,.0"/><path stroke-width="1" stroke-linecap="round" fill="#92d050" stroke="#92d050" d="M-14.6,-7.3L.0,.0L-14.6,7.3L-14.6,-7.3"/><path stroke-width="1" stroke-linecap="round" fill="#92d050" stroke="#92d050" d="M-208.8,7.3L-223.4,.0L-208.8,-7.3L-208.8,7.3"/></g><g transform="translate(438.860000,575.275750)" id="shape8"><path stroke-width="3.333329916000366" fill="none" stroke="#92d050" d="M.0,-14.6L.0,-181.4"/><path stroke-width="1" stroke-linecap="round" fill="#92d050" stroke="#92d050" d="M7.3,-14.6L.0,.0L-7.3,-14.6L7.3,-14.6"/><path stroke-width="1" stroke-linecap="round" fill="#92d050" stroke="#92d050" d="M-7.3,-181.4L.0,-196.0L7.3,-181.4L-7.3,-181.4"/></g><g transform="translate(487.776323,376.017050)" id="shape9"><path stroke-width="3.333329916000366" fill="none" stroke="#92d050" d="M10.8,9.8L214.2,193.8"/><path stroke-width="1" stroke-linecap="round" fill="#92d050" stroke="#92d050" d="M5.9,15.2L.0,.0L15.7,4.4L5.9,15.2"/><path stroke-width="1" stroke-linecap="round" fill="#92d050" stroke="#92d050" d="M219.1,188.4L225.0,203.6L209.3,199.2L219.1,188.4"/></g><g transform="translate(713.464329,376.200914)" id="shape10"><path stroke-width="3.333329916000366" fill="none" stroke="#92d050" d="M-11.0,9.6L-107.0,93.8C-108.7,95.3,-110.8,95.0,-113.5,94.5C-115.2,94.2,-117.1,94.6,-118.5,95.9C-120.0,97.1,-120.6,98.9,-120.6,100.7C-120.4,103.4,-120.4,105.5,-122.1,107.0L-217.2,190.3"/><path stroke-width="1" stroke-linecap="round" fill="#92d050" stroke="#92d050" d="M-15.8,4.1L.0,.0L-6.2,15.1L-15.8,4.1"/><path stroke-width="1" stroke-linecap="round" fill="#92d050" stroke="#92d050" d="M-212.4,195.8L-228.2,200.0L-222.0,184.8L-212.4,195.8"/></g><g transform="translate(152.260000,393.275750)" id="group11"><path fill-rule="nonzero" transform="translate(0.000000,19.327675)" id="shape12" stroke-width="3.333329916000366" fill="#d4e0f0" d="M8.8,.0L29.1,.0C34.0,.0,38.0,3.6,38.0,8.1L38.0,22.6C38.0,27.0,34.0,30.7,29.1,30.7L8.8,30.7C3.9,30.7,.0,27.0,.0,22.6L.0,8.1C.0,3.6,3.9,.0,8.8,.0z" stroke="#29699b"/><path fill-rule="nonzero" transform="translate(7.327350,-0.029200)" id="shape13" stroke-width="3.333329916000366" fill="#d4e0f0" d="M-0.0,11.4C-0.0,5.1,5.2,.0,11.6,.0C18.1,.0,23.3,5.1,23.3,11.4C23.3,17.6,18.1,22.7,11.6,22.7C5.2,22.7,-0.0,17.6,-0.0,11.4z" stroke="#29699b"/><text xml:space="preserve" style="fill:#29699b;font-family:微软雅黑,PingFang SC,Mircrosoft YaHei,Arial;font-size:10.00pt;font-weight:bold"><tspan y="66.1" x="1.2" style="font-family:微软雅黑,PingFang SC,Mircrosoft YaHei,Arial">设备A</tspan></text></g><g transform="translate(932.260000,432.275750)" id="group14"><path fill-rule="nonzero" transform="translate(0.000000,12.802600)" id="shape15" stroke-width="3.333329916000366" fill="#d4e0f0" d="M7.0,.0C7.3,.0,7.6,.0,7.8,.0C9.6,4.4,14.0,7.6,19.0,7.6C24.0,7.6,28.4,4.4,30.2,.0C31.3,.0,31.3,.0,31.3,.0L38.0,18.0L33.8,20.2L28.1,6.1L28.1,24.2L35.5,55.2L28.3,55.2L19.1,28.4L9.9,55.2L3.1,55.2L10.4,24.2L10.4,6.6L5.0,20.2L.0,18.5L7.0,.0z" stroke="#29699b"/><path fill-rule="nonzero" transform="translate(11.495000,0.000000)" id="shape16" stroke-width="3.333329916000366" fill="#d4e0f0" d="M.0,7.6C.0,3.4,3.4,.0,7.5,.0C11.6,.0,15.0,3.4,15.0,7.6C15.0,11.8,11.6,15.2,7.5,15.2C3.4,15.2,.0,11.8,.0,7.6z" stroke="#29699b"/></g><g transform="translate(152.260000,580.275750)" id="group17"><path fill-rule="nonzero" transform="translate(0.000000,19.327675)" id="shape18" stroke-width="3.333329916000366" fill="#d4e0f0" d="M8.8,.0L29.1,.0C34.0,.0,38.0,3.6,38.0,8.1L38.0,22.6C38.0,27.0,34.0,30.7,29.1,30.7L8.8,30.7C3.9,30.7,.0,27.0,.0,22.6L.0,8.1C.0,3.6,3.9,.0,8.8,.0z" stroke="#29699b"/><path fill-rule="nonzero" transform="translate(7.327350,-0.029200)" id="shape19" stroke-width="3.333329916000366" fill="#d4e0f0" d="M-0.0,11.4C-0.0,5.1,5.2,.0,11.6,.0C18.1,.0,23.3,5.1,23.3,11.4C23.3,17.6,18.1,22.7,11.6,22.7C5.2,22.7,-0.0,17.6,-0.0,11.4z" stroke="#29699b"/><text xml:space="preserve" style="fill:#29699b;font-family:微软雅黑,PingFang SC,Mircrosoft YaHei,Arial;font-size:10.00pt;font-weight:bold"><tspan y="66.1" x="1.6" style="font-family:微软雅黑,PingFang SC,Mircrosoft YaHei,Arial">设备B</tspan></text></g><g transform="translate(190.260000,605.275750)" id="shape20"><path stroke-width="3" fill="none" stroke="#29699b" d="M13.9,.0L184.7,.0"/><path stroke-width="1" stroke-linecap="round" fill="#29699b" stroke="#29699b" d="M13.9,6.9L.0,.0L13.9,-6.9L13.9,6.9"/><path stroke-width="1" stroke-linecap="round" fill="#29699b" stroke="#29699b" d="M184.7,-6.9L198.6,.0L184.7,6.9L184.7,-6.9"/><rect y="-10.3" height="18.4" width="66.4" x="66.2" fill="#ffffff"/><text xml:space="preserve" style="fill:#29699b;font-family:微软雅黑,PingFang SC,Mircrosoft YaHei,Arial;font-size:10.00pt"><tspan y="4.1" x="66.2" style="font-family:微软雅黑,PingFang SC,Mircrosoft YaHei,Arial">发布&amp;订阅</tspan></text></g><g transform="translate(171.260000,393.275750)" id="shape21"><path stroke-width="3" fill="none" stroke="#29699b" d="M.0,.0L204.1,-45.9"/><path stroke-width="1" stroke-linecap="round" fill="#29699b" stroke="#29699b" d="M202.6,-52.7L217.6,-49.0L205.6,-39.2L202.6,-52.7"/><rect y="-69.8" height="18.4" width="128.0" x="48.7" fill="#ffffff"/><rect y="-51.4" height="18.4" width="28.0" x="98.7" fill="#ffffff"/><text xml:space="preserve" style="fill:#29699b;font-family:微软雅黑,PingFang SC,Mircrosoft YaHei,Arial;font-size:10.00pt"><tspan y="-55.4" x="48.7" style="font-family:微软雅黑,PingFang SC,Mircrosoft YaHei,Arial">发布：/iot/deviceA/</tspan><tspan y="-37.0" x="98.7" style="font-family:微软雅黑,PingFang SC,Mircrosoft YaHei,Arial">data</tspan></text></g><g transform="translate(388.860000,349.275750)" id="shape22"><path stroke-width="3" fill="none" stroke="#29699b" d="M.0,.0L-204.9,88.5"/><path stroke-width="1" stroke-linecap="round" fill="#29699b" stroke="#29699b" d="M-202.1,94.9L-217.6,94.0L-207.6,82.1L-202.1,94.9"/><rect y="84.9" height="18.4" width="128.0" x="-157.4" fill="#ffffff"/><rect y="103.3" height="18.4" width="45.6" x="-116.2" fill="#ffffff"/><text xml:space="preserve" style="fill:#29699b;font-family:微软雅黑,PingFang SC,Mircrosoft YaHei,Arial;font-size:10.00pt"><tspan y="99.3" x="-157.4" style="font-family:微软雅黑,PingFang SC,Mircrosoft YaHei,Arial">订阅：/iot/deviceA/</tspan><tspan y="117.7" x="-116.2" style="font-family:微软雅黑,PingFang SC,Mircrosoft YaHei,Arial">service</tspan></text></g><g transform="translate(932.260000,466.275750)" id="shape23"><path stroke-width="3" fill="none" stroke="#29699b" d="M.0,.0L-110.1,-107.3"/><path stroke-width="1" stroke-linecap="round" fill="#29699b" stroke="#29699b" d="M-114.9,-102.4L-120.0,-117.0L-105.2,-112.3L-114.9,-102.4"/><rect y="-78.3" height="18.4" width="113.6" x="-125.5" fill="#ffffff"/><text xml:space="preserve" style="fill:#29699b;font-family:微软雅黑,PingFang SC,Mircrosoft YaHei,Arial;font-size:10.00pt"><tspan y="-63.9" x="-125.5" style="font-family:微软雅黑,PingFang SC,Mircrosoft YaHei,Arial">订阅：/iot/+/data</tspan></text></g><g transform="translate(907.000000,182.425250)" id="shape24"><path fill-rule="nonzero" stroke-width="1" fill="#e8eef7" d="M.0,19.0C.0,8.5,8.5,.0,19.0,.0C29.5,.0,38.0,8.5,38.0,19.0C38.0,29.5,29.5,38.0,19.0,38.0C8.5,38.0,.0,29.5,.0,19.0z" stroke="#3c91d3"/><text xml:space="preserve" style="fill:#454545;font-family:微软雅黑,PingFang SC,Mircrosoft YaHei,Arial;font-size:10.00pt;font-weight:bold"><tspan y="23.1" x="15.0" style="font-family:微软雅黑,PingFang SC,Mircrosoft YaHei,Arial">2</tspan></text></g><g transform="translate(809.260000,415.275750)" id="shape25"><path fill-rule="nonzero" stroke-width="1" fill="#e8eef7" d="M.0,19.0C.0,8.5,8.5,.0,19.0,.0C29.5,.0,38.0,8.5,38.0,19.0C38.0,29.5,29.5,38.0,19.0,38.0C8.5,38.0,.0,29.5,.0,19.0z" stroke="#3c91d3"/><text xml:space="preserve" style="fill:#454545;font-family:微软雅黑,PingFang SC,Mircrosoft YaHei,Arial;font-size:10.00pt;font-weight:bold"><tspan y="23.1" x="15.0" style="font-family:微软雅黑,PingFang SC,Mircrosoft YaHei,Arial">1</tspan></text></g><g transform="matrix(0.000000,1.000000,-1.000000,0.000000,1001.315000,238.425250)" id="shape26"><path stroke-width="1" fill="none" stroke="#d3678b" d="M27.0,110.3L80.9,198.4M54.0,67.6L54.0,110.3L.0,110.3L.0,67.6"/><text transform="matrix(0.00,-1.00,1.00,0.00,27.0,27.0)" xml:space="preserve" style="fill:#454545;font-family:微软雅黑,PingFang SC,Mircrosoft YaHei,Arial;font-size:10.00pt;font-weight:bold"><tspan y="-5.4" x="-75.7" style="font-family:微软雅黑,PingFang SC,Mircrosoft YaHei,Arial">订阅关系广播给</tspan><tspan y="13.8" x="-68.9" style="font-family:微软雅黑,PingFang SC,Mircrosoft YaHei,Arial">其它所有节点</tspan></text></g><g transform="matrix(0.000000,1.000000,-1.000000,0.000000,339.551500,514.425250)" id="shape27"><path stroke-width="1" fill="none" stroke="#d3678b" d="M27.0,.0L67.9,-49.3M54.0,42.7L54.0,.0L.0,.0L.0,42.7"/><text transform="matrix(0.00,-1.00,1.00,0.00,27.0,27.0)" xml:space="preserve" style="fill:#454545;font-family:微软雅黑,PingFang SC,Mircrosoft YaHei,Arial;font-size:10.00pt;font-weight:bold"><tspan y="-5.4" x="-74.1" style="font-family:微软雅黑,PingFang SC,Mircrosoft YaHei,Arial">维护所有Topic</tspan><tspan y="13.8" x="-62.1" style="font-family:微软雅黑,PingFang SC,Mircrosoft YaHei,Arial">的订阅关系</tspan></text></g><g transform="translate(189.000000,514.425250)" id="shape28"><path fill-rule="nonzero" stroke-width="1" fill="#e8eef7" d="M.0,19.0C.0,8.5,8.5,.0,19.0,.0C29.5,.0,38.0,8.5,38.0,19.0C38.0,29.5,29.5,38.0,19.0,38.0C8.5,38.0,.0,29.5,.0,19.0z" stroke="#3c91d3"/><text xml:space="preserve" style="fill:#454545;font-family:微软雅黑,PingFang SC,Mircrosoft YaHei,Arial;font-size:10.00pt;font-weight:bold"><tspan y="23.1" x="15.0" style="font-family:微软雅黑,PingFang SC,Mircrosoft YaHei,Arial">3</tspan></text></g><g transform="translate(165.000000,319.275750)" id="shape29"><path fill-rule="nonzero" stroke-width="1" fill="#e8eef7" d="M.0,19.0C.0,8.5,8.5,.0,19.0,.0C29.5,.0,38.0,8.5,38.0,19.0C38.0,29.5,29.5,38.0,19.0,38.0C8.5,38.0,.0,29.5,.0,19.0z" stroke="#3c91d3"/><text xml:space="preserve" style="fill:#454545;font-family:微软雅黑,PingFang SC,Mircrosoft YaHei,Arial;font-size:10.00pt;font-weight:bold"><tspan y="23.1" x="15.0" style="font-family:微软雅黑,PingFang SC,Mircrosoft YaHei,Arial">4</tspan></text></g><g transform="translate(419.860000,162.926250)" id="shape30"><path fill-rule="nonzero" stroke-width="1" fill="#e8eef7" d="M.0,19.0C.0,8.5,8.5,.0,19.0,.0C29.5,.0,38.0,8.5,38.0,19.0C38.0,29.5,29.5,38.0,19.0,38.0C8.5,38.0,.0,29.5,.0,19.0z" stroke="#3c91d3"/><text xml:space="preserve" style="fill:#454545;font-family:微软雅黑,PingFang SC,Mircrosoft YaHei,Arial;font-size:10.00pt;font-weight:bold"><tspan y="23.1" x="15.0" style="font-family:微软雅黑,PingFang SC,Mircrosoft YaHei,Arial">5</tspan></text></g><g transform="translate(581.560000,162.926250)" id="shape31"><path fill-rule="nonzero" stroke-width="1" fill="#e8eef7" d="M.0,19.0C.0,8.5,8.5,.0,19.0,.0C29.5,.0,38.0,8.5,38.0,19.0C38.0,29.5,29.5,38.0,19.0,38.0C8.5,38.0,.0,29.5,.0,19.0z" stroke="#3c91d3"/><text xml:space="preserve" style="fill:#454545;font-family:微软雅黑,PingFang SC,Mircrosoft YaHei,Arial;font-size:10.00pt;font-weight:bold"><tspan y="23.1" x="15.0" style="font-family:微软雅黑,PingFang SC,Mircrosoft YaHei,Arial">6</tspan></text></g><g transform="translate(743.260000,158.425250)" id="shape32"><path fill-rule="nonzero" stroke-width="1" fill="#e8eef7" d="M.0,19.0C.0,8.5,8.5,.0,19.0,.0C29.5,.0,38.0,8.5,38.0,19.0C38.0,29.5,29.5,38.0,19.0,38.0C8.5,38.0,.0,29.5,.0,19.0z" stroke="#3c91d3"/><text xml:space="preserve" style="fill:#454545;font-family:微软雅黑,PingFang SC,Mircrosoft YaHei,Arial;font-size:10.00pt;font-weight:bold"><tspan y="23.1" x="15.0" style="font-family:微软雅黑,PingFang SC,Mircrosoft YaHei,Arial">7</tspan></text></g><g transform="translate(388.860000,200.926250)" id="shape33"><path fill-rule="nonzero" stroke-width="3.333329916000366" fill="#fae4d3" d="M100.0,60.0L100.0,.0L.0,.0L.0,60.0L100.0,60.0z" stroke="#b27720"/><text xml:space="preserve" style="fill:#b27720;font-family:微软雅黑,PingFang SC,Mircrosoft YaHei,Arial;font-size:10.00pt;font-weight:bold"><tspan y="24.6" x="9.2" style="font-family:微软雅黑,PingFang SC,Mircrosoft YaHei,Arial">消息推送给本</tspan><tspan y="43.8" x="16.0" style="font-family:微软雅黑,PingFang SC,Mircrosoft YaHei,Arial">节点订阅者</tspan></text></g><g transform="translate(550.560000,200.926250)" id="shape34"><path fill-rule="nonzero" stroke-width="3.333329916000366" fill="#fae4d3" d="M100.0,60.0L100.0,.0L.0,.0L.0,60.0L100.0,60.0z" stroke="#b27720"/><text xml:space="preserve" style="fill:#b27720;font-family:微软雅黑,PingFang SC,Mircrosoft YaHei,Arial;font-size:10.00pt;font-weight:bold"><tspan y="24.6" x="9.2" style="font-family:微软雅黑,PingFang SC,Mircrosoft YaHei,Arial">消息转发给其</tspan><tspan y="43.8" x="16.0" style="font-family:微软雅黑,PingFang SC,Mircrosoft YaHei,Arial">它订阅节点</tspan></text></g><g transform="translate(712.260000,200.926250)" id="shape35"><path fill-rule="nonzero" stroke-width="3.333329916000366" fill="#fae4d3" d="M100.0,60.0L100.0,.0L.0,.0L.0,60.0L100.0,60.0z" stroke="#b27720"/><text xml:space="preserve" style="fill:#b27720;font-family:微软雅黑,PingFang SC,Mircrosoft YaHei,Arial;font-size:10.00pt;font-weight:bold"><tspan y="24.6" x="9.2" style="font-family:微软雅黑,PingFang SC,Mircrosoft YaHei,Arial">消息推送给本</tspan><tspan y="43.8" x="16.0" style="font-family:微软雅黑,PingFang SC,Mircrosoft YaHei,Arial">节点订阅者</tspan></text></g><g transform="translate(488.860000,230.926250)" id="shape36"><path stroke-width="3" fill="none" stroke="#b27720" d="M.0,.0L54.8,.0"/><path stroke-width="1" stroke-linecap="round" fill="#b27720" stroke="#b27720" d="M54.8,-3.5L61.7,.0L54.8,3.5L54.8,-3.5"/></g><g transform="translate(650.560000,230.926250)" id="shape37"><path stroke-width="3" fill="none" stroke="#b27720" d="M.0,.0L54.8,.0"/><path stroke-width="1" stroke-linecap="round" fill="#b27720" stroke="#b27720" d="M54.8,-3.5L61.7,.0L54.8,3.5L54.8,-3.5"/></g><g transform="translate(891.260000,500.275750)" id="shape38"><text xml:space="preserve" style="fill:#454545;font-family:微软雅黑,PingFang SC,Mircrosoft YaHei,Arial;font-size:10.00pt;font-weight:bold"><tspan y="20.1" x="32.8" style="font-family:微软雅黑,PingFang SC,Mircrosoft YaHei,Arial">应用系统</tspan></text></g><g transform="translate(812.260000,230.926250)" id="shape39"><path stroke-width="3" fill="none" stroke="#b27720" d="M.0,.0L135.1,195.6"/><path stroke-width="1" stroke-linecap="round" fill="#b27720" stroke="#b27720" d="M137.9,193.7L139.0,201.3L132.2,197.6L137.9,193.7"/><rect y="106.0" height="18.4" width="54.4" x="54.1" fill="#ffffff"/><text xml:space="preserve" style="fill:#b27720;font-family:微软雅黑,PingFang SC,Mircrosoft YaHei,Arial;font-size:10.00pt"><tspan y="120.4" x="54.1" style="font-family:微软雅黑,PingFang SC,Mircrosoft YaHei,Arial">收到消息</tspan></text></g><g transform="translate(932.260000,330.275750)" id="shape40"><path fill-rule="nonzero" stroke-width="1" fill="#e8eef7" d="M.0,19.0C.0,8.5,8.5,.0,19.0,.0C29.5,.0,38.0,8.5,38.0,19.0C38.0,29.5,29.5,38.0,19.0,38.0C8.5,38.0,.0,29.5,.0,19.0z" stroke="#3c91d3"/><text xml:space="preserve" style="fill:#454545;font-family:微软雅黑,PingFang SC,Mircrosoft YaHei,Arial;font-size:10.00pt;font-weight:bold"><tspan y="23.1" x="15.0" style="font-family:微软雅黑,PingFang SC,Mircrosoft YaHei,Arial">8</tspan></text></g><g transform="translate(438.860000,319.275750)" id="shape41"><path stroke-width="3" fill="none" stroke="#b27720" d="M.0,.0L.0,-51.4"/><path stroke-width="1" stroke-linecap="round" fill="#b27720" stroke="#b27720" d="M-3.5,-51.4L.0,-58.3L3.5,-51.4L-3.5,-51.4"/></g></g></svg>